<svg xmlns="http://www.w3.org/2000/svg" viewBox="0 0 955.03 955.03"><defs><style>.cls-1{fill:#fff;}.cls-2{fill:#BAC3E0;}</style></defs><title>Fichier 1</title><g id="Calque_2" data-name="Calque 2"><g id="Campagne_-_Monochrome" data-name="Campagne - Monochrome"><path class="cls-1" d="M663.39,37.52a477.64,477.64,0,0,0-371.74,880,477.64,477.64,0,0,0,371.74-880Z"/><path class="cls-2" d="M504.15,617.52c-1.2-1.65-5.38-9.29-5.83-11.73s-5.1-2.85-6.4-3.59-3.08.72-5.05-.53c-.23-.14-.48-.32-.75-.52l0,0c-.26-.18-.53-.39-.82-.61-2-1.53-4.44-3.59-5.72-3.56-1.68,0-8.09,1.87-9.78,1.39-1-.27-2.51.45-2.8,2.78s-2.22,2.89-3.47,4.72-1.58,9.21-.88,11.77,4.42,6.47,6.87,6.8a32.33,32.33,0,0,0,8.64-.21c2.31-.44,4.69,1.95,4.75,4.27s2.69,4.71,2.61,6.78c-.06,1.47-.86,4-.64,6.71a1.49,1.49,0,0,0,0,.21,7.77,7.77,0,0,0,.14,1h0a7.7,7.7,0,0,0,.25.91,2.09,2.09,0,0,0,.08.23,7.12,7.12,0,0,0,.39.91c1.89,3.56,4.55,6.85,4.7,8s5.15-.64,7.53-3.66,2.51-2.77,3.21-5.88,2.35-4.32,2.57-6a22.85,22.85,0,0,0-.15-5.93c-.31-2.44,4.32-8.23,4.53-10.43S505.35,619.16,504.15,617.52Z"/><path class="cls-2" d="M479.88,594.9c.77.22,1.66-.58.47-1.71C479.6,592.47,479.1,594.69,479.88,594.9Z"/><path class="cls-2" d="M778.7,350.3a327.94,327.94,0,1,0,25.68,127.22A325.72,325.72,0,0,0,778.7,350.3Zm-41.58,29.16,1.33,7.17,7,2.06L738.27,390l-2.06,8.06-1.32-8.24-7-2.06,7.17-1.32Zm-90.06-31.17,6.24,15.08,16.27,1.27-12.41,10.6L661,391.1l-13.91-8.53-13.91,8.53L637,375.24l-12.41-10.6,16.26-1.27Zm-41.5-50.6,6.24-15.08L618,297.69,634.31,299l-12.41,10.6,3.81,15.86-13.91-8.53-13.91,8.53,3.82-15.86L589.3,299Zm-32.32-90.35,2-10.93,1.29,11.1,6.81,2-7,1.29-2,10.93-1.29-11.1-6.81-2ZM417,195.24l2-6.89,1.31,7.07,6.89,2-7.06,1.31-2,7.94-1.31-8.11-6.89-2Zm-53,38.38,4.52-15.37L371.44,234l15.37,4.52-15.76,2.92-4.53,15.37-2.91-15.76-15.37-4.53Zm-27.84,60.17,1.82-5.86c1.23,7.39,17.52,13.65,22.18,15.3.42.13.84.28,1.25.43,0,0-.47-.15-1.25-.43-12.85-4.07-27.33,1.29-27.33,1.29l1.95-6.3-18.37-5.36C323,293.33,329.59,293.4,336.16,293.79ZM264.62,384.6a39.83,39.83,0,0,1-2.07-10c2.45,2.28,6.95,5.28,16.09,7.42,10.37,2.42,12.33,2.2,26.91,6.62s20.43,1,26.93,1.32a32.77,32.77,0,0,0,6.27-.27,40.6,40.6,0,0,1-2.51,4.28C323,396.24,297.07,398.24,264.62,384.6Zm57.49,22.24a40.34,40.34,0,0,1-55.2-16.92C270.84,392.75,288.48,404.05,322.11,406.84Zm-59.65-37.17a40,40,0,0,1,.63-5.52c6.56,3,35.55,14.64,80,6.92,0,.12,0,.25,0,.37a40.36,40.36,0,0,1-2.66,14.42C286.38,388.62,262.46,369.67,262.46,369.67Zm47.82-14.77c17,0,26,2.26,30.8,3.92a40.49,40.49,0,0,1,1.91,9.7c-48.16.84-75-17.55-75-17.55.59-1,1.23-2,1.91-2.9C274.51,349.57,292.25,354.94,310.28,354.9Zm-38.62-9.15a40.73,40.73,0,0,1,11.26-9.43c3.38,1.62,12.79,5.67,29.25,9.29h0l2.68.57.11,0,2.75.55.18,0,2.72.51.35.07,2.67.46.52.09c.86.15,1.74.29,2.62.42l.7.12,2.59.38.85.13,2.76.37.8.11,2.27.28a39.45,39.45,0,0,1,3.23,6.14c-6.6-.82-13.9-2.94-27.76-2.94S281.33,349.47,271.66,345.75Zm36.59-14.26h0c.61.08,1.22.18,1.82.29h.08c1.2.22,2.39.5,3.55.83h0l.2.06h0c.55.16,1.11.33,1.66.52l.15.05h0c1.09.37,2.16.79,3.2,1.24h0l.33.14h0c1.06.48,2.09,1,3.1,1.56l.27.15h0l1.2.7h0l.13.08c.48.3.95.6,1.42.92h0l.43.3h0l1.06.76h0l0,0c.58.43,1.14.89,1.7,1.35l.2.17h0l.92.8h0l0,0c.41.37.81.74,1.2,1.12h0c-1.28.05-2.52.07-3.74.09h-1c-1.08,0-2.15,0-3.19,0h-.39c-1.12,0-2.21-.06-3.29-.1l-1-.05c-.87,0-1.73-.09-2.56-.15l-.65,0c-1-.08-1.93-.16-2.86-.26l-.95-.1-.83-.09h0A77.36,77.36,0,0,1,285.47,335a40,40,0,0,1,22.78-3.5ZM204,485.16l-2.28,8.92L200.2,485l-7.73-2.28,7.93-1.46,2.28-7.74,1.47,7.93,7.74,2.28Zm34.12,52.36-4,13.6-2.58-13.94-13.59-4,13.93-2.58,4-13.59,2.58,13.93L252,535Zm-7.6-110.72a87.89,87.89,0,0,1-12-29.81,69,69,0,0,1-1.24-7.92l-.4-4a16.58,16.58,0,0,1-.1-2l0-2a82,82,0,0,1,1-15.89,86.87,86.87,0,0,1,10.42-29.72,87.83,87.83,0,0,1,20.06-23.86,85.44,85.44,0,0,1,57.08-19.75,85.26,85.26,0,0,0-29.57,6.26A83.44,83.44,0,0,0,232.83,338a80.9,80.9,0,0,0-8.08,28.13,73.35,73.35,0,0,0-.09,14.59l.13,1.81a15.87,15.87,0,0,0,.19,1.81l.58,3.59a61,61,0,0,0,1.53,7.07,78,78,0,0,0,12.18,25.91,80.43,80.43,0,0,0,20.38,19.69,78.22,78.22,0,0,0,25.66,11.21l4.14.61-7.77,13.05a91.89,91.89,0,0,1-51.21-38.65Zm177.6,298.47-4.53,15.38-2.92-15.76-15.37-4.53L401,717.45l4.53-15.38,2.91,15.76,15.38,4.53Zm28.8,28.7-2,10.93-1.29-11.1-6.81-2,7-1.29,2-10.93,1.29,11.1,6.81,2Zm49.8-75.73c-.76,0-2.14.21-3.27-.5-2.14-1.34-4.63.5-7.6.72s-6.69.39-9.75,2a37.6,37.6,0,0,1-6,2.59c-1.69.66-1.85,1.23-1.71,1.74a56.94,56.94,0,0,1-12.18-1.68,1.28,1.28,0,0,0-.05-.27l0-.1a1.07,1.07,0,0,0-.07-.19,3.37,3.37,0,0,0-.17-.32l-.34-.51-.09-.12-.53-.73-.37-.51-.21-.29c-.17-.24-.35-.49-.52-.75,0-.07-.1-.15-.16-.22l-.48-.74-.08-.13a9,9,0,0,1-1.25-2.74c-.44-2.19-3.27-1.73-4.67-1s-1.1,3.49-.65,5.33a57.17,57.17,0,0,1-31.1-69,30.68,30.68,0,0,1,2,6.46c.44,2.31,4,.94,5.23,2.72a16.31,16.31,0,0,0,4.87,4.14c1.44.87,0-.9-1-3s-2.17-4.33-1.95-5.83-1.34-2-2.34-.77-1.64,1.46-2.22-1.24,2.37-3.15,3.91-3.83,2.33.46,3.38,1.33.89-.66,1.08-3.5,4.57-8.37,5.93-11,2.88-3.62,3.23-5,3.46-.86,6.06,0,2.44-.83,1.37-2.09-2-1.63-1-2.56-.3-1.67-1.36-2.93-1.11-3.07-1.51-3.63-1.89,1.9-3.16,2.06c-.92.12-.72-.83-.41-1.46a56.55,56.55,0,0,1,11.08-6,14,14,0,0,1,2.24,2.74c.93,1.52,2.64,2.64,3.48-.09.68-2.22,1.59-4.38,1.9-5.11a57.18,57.18,0,0,1,30.19.74v0c-.07.23-.15.45-.21.67l-.06.22c-.05.22-.11.43-.15.64a1.81,1.81,0,0,0,0,.23,5.77,5.77,0,0,0-.08.58,1.92,1.92,0,0,0,0,.24,3.81,3.81,0,0,0,0,.48,1.68,1.68,0,0,0,.06.24,1.27,1.27,0,0,0,.09.36,1,1,0,0,0,.15.24,1.2,1.2,0,0,0,.15.24,1.45,1.45,0,0,0,.29.19.91.91,0,0,0,.19.13,2.15,2.15,0,0,0,.67.13c2.06.08,3.23.56,2.63,2.13s-1.51,1.84-2.91,2.77l-.33.23-.13.09-.25.18-.35.25-.05,0-.26.17-.09.06-.25.15-.06,0-.27.15-.07,0-.2.08-.07,0a1,1,0,0,1-.23,0c-.29,0-.5-.13-.59-.53a17.29,17.29,0,0,0-1.83-3.51l0-.07c-.09-.15-.17-.31-.25-.46l-.07-.14c-.09-.18-.17-.36-.24-.53-.55-1.41-.71-2.82-1.71-1.51s-2.21,2.5-3.17,4,1.1,1.52,3.06,2.25,2.37,2,1.87,2.92.87,1.18,1.34,2.16c.33.68,1.08,2,.07,2.71s-4.42-1.19-5.43-.52-.15,4.52-.52,5.3,2.64,1,3.35,1.6,3.25-.85,3.87-1.9.46-2.2,1.72-3.39,2.36-.74,3.36-1.09l.1,0c1-.41,0-1,1-.41s5.23,3.1,5,3.88-2.05.31-2.16,1.34a1.4,1.4,0,0,0,1.59,1.42c.64,0,1.63-1.75,2.27-2.15s2,1.18,3.53,2,2-2.66,2.76-3.2,6.44-.54,6.58.23-5.29,0-5.89,1.69,2.11,2.14,3.56,3.14,2.43,4.59,2.62,7.16,3.34,10.24,5.92,10.31,6.24-3.63,5.69-5-3.63-.68-4.59-2.85-2.41-3.94-1.52-4.35a.23.23,0,0,1,.18,0l0,0a.73.73,0,0,1,.18.11l0,0c1,.92,3.09,5.12,7.64,4.25a57.16,57.16,0,0,1-27.3,69.51Zm-65.21-87.91c-.6.14-1.26-2.19-1.44-3.52,1.31-1.27,2.67-2.49,4.09-3.63.29,1.89-1.62,2.91-2.22,3.79S422.1,590.19,421.46,590.33Zm63.09-13.72c0-.06,0-.11,0-.16l0-.21a.5.5,0,0,1,0-.12s0-.1-.05-.15h0q2.22,1,4.32,2.26c-.06.48.06,1.09,0,1.59v0a1.29,1.29,0,0,1-.05.21s0,.05,0,.07a1,1,0,0,1-.12.23c-.63.79-2.52,2.77-4.71,2.69s-3.25-1.08-2-1.89,2-.3,2.51-2.77c.06-.26.09-.5.12-.72,0-.07,0-.14,0-.21s0-.26,0-.37v-.47ZM482.68,452l-4.11,22.37-2.64-22.72L462,447.58l14.29-2.65,4.1-22.36L483,445.28,497,449.39Zm-7.42,61.9L468,534.63C466.24,524.26,441,515,441,515,456.72,520.78,475.26,513.93,475.26,513.93Zm26.26,74.41a57,57,0,0,1,4.57,5.48l0,0,.05.14.06.2.06.21s0,.07,0,.11a5.73,5.73,0,0,1,.18,3.34l0,0a.82.82,0,0,1-.38.38.8.8,0,0,1-.32.09c-1.93.17-2.43-4.59-2.45-5.23a1.49,1.49,0,0,0,0-.17s0,0,0-.06,0-.11,0-.18,0-.06,0-.08a2,2,0,0,1-.07-.23l0-.09-.09-.27s0-.08,0-.11-.07-.2-.11-.31a.36.36,0,0,0,0-.09l-.13-.36,0-.05c-.05-.14-.11-.27-.16-.41l0,0c-.05-.14-.11-.28-.17-.42v0C502,589.51,501.72,588.8,501.52,588.34Zm7,131.27a103.86,103.86,0,0,0,50.21-78.52,102.32,102.32,0,0,0-1.75-31.49,90.28,90.28,0,0,0-4.53-15.05L551,590.89c-.51-1.2-1.11-2.37-1.66-3.55l-1.69-3.53-1.93-3.4A98.43,98.43,0,0,0,491,535.57q.84-3,1.64-5.92.89-3.33,1.69-6.67a112.38,112.38,0,0,1,39.36,25.61,110.36,110.36,0,0,1,19.79,27.65l1.89,3.8L557,584c.52,1.31,1.1,2.6,1.57,3.93l1.33,4a98.38,98.38,0,0,1,4,16.39,106.81,106.81,0,0,1-10.09,65.05A105.89,105.89,0,0,1,508.47,719.61Zm58.21,31.9-2.28,8.92-1.46-9.12L555.2,749l7.93-1.46,2.28-7.74,1.47,7.93,7.74,2.28Zm43-46.24h0l11.44-53.19q.62-2.85,1.09-5.76c.24-1.46.46-2.93.64-4.4.22-1.7.4-3.42.53-5.11a118.79,118.79,0,0,0-.08-20.4c-.17-1.89-.4-3.78-.66-5.66-.21-1.49-.43-3-.69-4.44-.59-3.34-1.34-6.69-2.21-9.95-.44-1.63-.92-3.28-1.43-4.91a119.86,119.86,0,0,0-5.57-14.37q-1.08-2.33-2.27-4.61L507.17,374c-1.07-2.06-2.13-4.14-3.17-6.22l-.07-.15a403.94,403.94,0,0,1-19.06-44.8l-5.49-15.45-5.5,15.45A405.25,405.25,0,0,1,451.58,374L348.47,572l-.23.44c-.47.91-.91,1.84-1.36,2.76a120,120,0,0,0-6.48,16.22c-.51,1.63-1,3.28-1.43,4.91-.14.53-.26,1.08-.39,1.62-.63,2.48-1.19,5-1.65,7.5-.05.27-.12.55-.17.83-.53,3-.94,6-1.24,9.08,0,.34-.08.68-.11,1a118.79,118.79,0,0,0-.08,20.4c.13,1.69.31,3.41.53,5.11s.43,3.15.69,4.73c.31,1.82.65,3.64,1,5.43L349,705.27h0L261.1,615.51,479.38,210,692,604.93l5.69,10.58Zm84-264.35,3.81,15.86-13.91-8.53-13.91,8.53,3.82-15.86-12.41-10.6,16.26-1.27L683.66,414l6.24,15.08,16.27,1.27Zm10.61-109.35,10.35-1.92,3-10.1,1.92,10.36,10.1,3-10.36,1.92-3,11.65-1.92-11.91ZM734,543.48l-4.11,22.36-2.64-22.71L713.32,539l14.29-2.64,4.1-22.37,2.65,22.72,13.94,4.1Z"/><path class="cls-2" d="M444,631.85c-2.48-1.36-4.94-1.43-6.13-2.82s-1.06-1-3.17-3.15-3.66-1.85-6.41-3.59-5.12-3.1-6.57-1.9-2.61,3.17-2.41,3.9a6.13,6.13,0,0,1-.41,4.35c-1,1.9-1.34,3.45.15,6.52s3.58,4,5.2,6.84,1.46,7.32,1.88,14,2.86,11.93,6.77,13.39-1.48-2.29-1.15-4.88.16-4,1.53-6,2.26-1.21,3.94-4.74,1.13-4.67,3.16-5.88,5,0,5.59-4-2-2.79.74-6.47S446.47,633.21,444,631.85Z"/><path class="cls-2" d="M507.15,635.12c-1,1.18-3.4,3.43-3.36,5.11l0,1.68c-1,2-3.12,4.46-2.57,5.73s1.19,1.39,2.68-1.09a28,28,0,0,0,3.29-8.08C507.57,636.4,508.15,633.93,507.15,635.12Z"/><path class="cls-2" d="M794.35,343.68a343.69,343.69,0,0,0-274.23-207.4,348.43,348.43,0,0,0-44-2.78c-190,0-344,154-344,344s154,344,344,344a346.46,346.46,0,0,0,44-2.78A344.07,344.07,0,0,0,794.35,343.68ZM477.54,812.35c-184.92,0-334.83-149.91-334.83-334.83S292.62,142.68,477.54,142.68,812.38,292.59,812.38,477.52,662.47,812.35,477.54,812.35Z"/><polygon class="cls-2" points="323.23 100.35 288.5 90.86 310.53 144.66 321.48 140.17 308.56 108.63 318.37 111.28 328.9 114.2 334.36 104.74 339.49 95.97 352.41 127.51 363.37 123.02 341.34 69.23 323.23 100.35"/><rect class="cls-2" x="363.53" y="63.98" width="11.84" height="57.11" transform="matrix(0.96, -0.27, 0.27, 0.96, -11.27, 103.11)"/><path class="cls-2" d="M435.05,77.76l-.3-.24-.4-.33A18.36,18.36,0,0,0,420,73.45l-19.58,3.19a4.09,4.09,0,0,1-4.63-3.34l-.06-.31a4.09,4.09,0,0,1,3.34-4.63l22.07-3.6a4.06,4.06,0,0,1,4.63,3.34l.22,1.31,11.67-2-.21-1.29A15.93,15.93,0,0,0,419.21,53l-22.06,3.59a15.87,15.87,0,0,0-13,18.21l0,.31a15.52,15.52,0,0,0,4.16,8.4,15.21,15.21,0,0,0,2.42,2.19,15.73,15.73,0,0,0,11.58,2.63l19.58-3.19a6.56,6.56,0,0,1,4.93,1.15,6.45,6.45,0,0,1,1.49,9.14A6.59,6.59,0,0,1,424,98.08l-17,2.77a6.55,6.55,0,0,1-7.52-5.42l-.16-1-11.69,1.9.16,1a18.44,18.44,0,0,0,18.15,15.44,18.77,18.77,0,0,0,3-.24l17-2.77a18.4,18.4,0,0,0,9.15-32Z"/><path class="cls-2" d="M489.61,49.39,467.25,49A15.86,15.86,0,0,0,451.2,64.64V65a15.57,15.57,0,0,0,2.61,9,14.77,14.77,0,0,0,2,2.58,15.71,15.71,0,0,0,10.94,4.63l19.84.33a6.6,6.6,0,0,1,4.65,2,6.56,6.56,0,0,1-4.87,11.11l-17.23-.28a6.58,6.58,0,0,1-6.46-6.66l0-1-11.84-.2v1a18.39,18.39,0,0,0,18.09,18.7l17.24.28h.31a18.4,18.4,0,0,0,18.39-18.1,18.51,18.51,0,0,0-4-11.72l-.07-.07-.25-.3-.33-.39a18.41,18.41,0,0,0-13.48-6.21l-19.84-.33a4.08,4.08,0,0,1-4-4.1v-.32a3.93,3.93,0,0,1,1.24-2.82,3.88,3.88,0,0,1,2.86-1.15l22.36.37a4.08,4.08,0,0,1,4,4.1l0,1.32,11.84.1,0-1.31a15.91,15.91,0,0,0-15.62-16.13Z"/><rect class="cls-2" x="493.69" y="74.31" width="57.11" height="11.84" transform="translate(384.71 590.39) rotate(-83.65)"/><path class="cls-2" d="M589.65,72.21a28.54,28.54,0,1,0-30.38,43.13,28.69,28.69,0,0,0,6.3.7,28.55,28.55,0,0,0,24.08-43.83Zm-40.43,11.6a16.76,16.76,0,0,1,16.29-13,16.41,16.41,0,0,1,3.68.41,16.7,16.7,0,1,1-20,12.64Z"/><polygon class="cls-2" points="655.19 87.32 642.28 118.86 620.87 81.92 613.6 69.44 591.63 123.09 602.59 127.58 615.41 96.27 636.82 133.21 644.09 145.69 666.11 91.9 655.19 87.32"/><path class="cls-2" d="M243.15,834.17l-8.79-5.24,40.21-31a10,10,0,0,1,6.34-2.4,16.34,16.34,0,0,1,11.9,7.09,9.67,9.67,0,0,1,.83,6.68L284.88,859,276,853.75l8-45a2.61,2.61,0,0,0-1.31-2.89,2.73,2.73,0,0,0-3.22.19Z"/><path class="cls-2" d="M341.06,825a20.7,20.7,0,0,1,6.63,4.16,15.11,15.11,0,0,1,3.58,5.23,13.41,13.41,0,0,1,.89,5.87,18.64,18.64,0,0,1-1.41,6,20.29,20.29,0,0,1-3.13,5.19,14.47,14.47,0,0,1-4.77,3.81,15.46,15.46,0,0,1-6.39,1.53,18.82,18.82,0,0,1-7.88-1.65l-15.27-6.33a1.18,1.18,0,0,0-1.75.73l-7.35,17.74-8.59-3.55,8.05-19.42c1.15-2.77,2.58-4.5,4.29-5.21s3.93-.5,6.65.62L332.28,847a8.1,8.1,0,0,0,3.37.72,6.32,6.32,0,0,0,2.74-.65,7.07,7.07,0,0,0,2.09-1.65,8.88,8.88,0,0,0,1.44-2.35,7.46,7.46,0,0,0,.27-5.29q-.84-2.61-4.33-4l-25.52-10.58,3.55-8.58Z"/><path class="cls-2" d="M390.38,840.46q11.3,2.82,15.7,10.74t1.13,21Q404,885.16,396.4,890t-18.89,2l-7-1.75q-11.31-2.82-15.72-10.66t-1.18-20.82q3.27-13.06,10.86-18t18.9-2.1Zm-9.28,7.26q-7.49-1.86-11.87,1.26T362.61,861q-2.22,8.87.17,13.59c1.6,3.16,4.91,5.37,10,6.62l7,1.76q7.41,1.85,11.79-1.24t6.59-11.94q2.22-8.87-.16-13.68t-9.85-6.67Z"/><path class="cls-2" d="M429.62,847.74l-3.56,34.53a12.43,12.43,0,0,0,.15,3.62,6.67,6.67,0,0,0,1.46,3.08,8.72,8.72,0,0,0,3.13,2.26,16.48,16.48,0,0,0,5.14,1.24l20.51,2.11-.95,9.24-21.06-2.17a26.17,26.17,0,0,1-8.83-2.29,16.12,16.12,0,0,1-5.68-4.42,14.51,14.51,0,0,1-2.81-6.11,23.91,23.91,0,0,1-.3-7.43l3.55-34.61Z"/><path class="cls-2" d="M473.89,850.78l.56,34.71a12.24,12.24,0,0,0,.58,3.57,6.64,6.64,0,0,0,1.81,2.89,8.84,8.84,0,0,0,3.38,1.87,16.35,16.35,0,0,0,5.25.62l20.62-.33.15,9.29-21.17.34a26.06,26.06,0,0,1-9-1.23,16.06,16.06,0,0,1-6.16-3.72,14.45,14.45,0,0,1-3.52-5.73,24.28,24.28,0,0,1-1.18-7.34l-.57-34.79Z"/><path class="cls-2" d="M538,845.81q11.52-1.75,18.63,3.85t9.14,18.91q2,13.23-3.1,20.62T546,898.34l-7.17,1.1q-11.5,1.75-18.61-3.77t-9.12-18.75q-2-13.3,3.08-20.78t16.62-9.23Zm-5.75,10.28q-7.63,1.17-10.47,5.74c-1.9,3-2.38,7.62-1.45,13.68S523,885.69,525.73,888s6.6,3,11.73,2.26l7.16-1.09q7.54-1.15,10.4-5.69t1.47-13.57q-1.38-9-5.42-12.55T539.4,855Z"/><path class="cls-2" d="M628.47,819.57l3.26,8.71-20.5,7.66q-7.23,2.7-9.09,7.72t1.36,13.66q3.19,8.55,7.86,11.13t12-.14l8.26-3.09q3.67-1.38,4.58-3.94a8.18,8.18,0,0,0-.27-5.65,7.14,7.14,0,0,0-3.26-4.12,6.34,6.34,0,0,0-5.23.06l-11.06,4.14-2.84-7.6,11.94-4.46q6.72-2.52,11.38.07t7.09,9.08a22.75,22.75,0,0,1,1.43,6.4,13.7,13.7,0,0,1-.89,6,14,14,0,0,1-3.55,5.11,19.73,19.73,0,0,1-6.66,3.87L626.58,877q-10.91,4.08-19,.09T594.8,860.57q-4.71-12.62-1.23-20.93T608,827.24Z"/><path class="cls-2" d="M646.4,810.39l23.49,47.67-8.33,4.1L638.07,814.5Z"/><path class="cls-2" d="M690.9,784.44l4.86,7.91-18.25,11.21a16.72,16.72,0,0,0-4.12,3.37,8.6,8.6,0,0,0-1.87,3.41,6.75,6.75,0,0,0,0,3.34,11.52,11.52,0,0,0,1.4,3.26l2.63,4.29,27.3-16.77,4.62,7.51-27.3,16.77,11,17.91-7.91,4.86L665,821.87a24.25,24.25,0,0,1-2.94-6.83,14.55,14.55,0,0,1-.12-6.72,16.26,16.26,0,0,1,3.2-6.45,26.3,26.3,0,0,1,7-5.89Z"/><path class="cls-2" d="M909.86,294.88a470.8,470.8,0,1,0,36.87,182.64A467.74,467.74,0,0,0,909.86,294.88Zm-8.29,361.77a461.79,461.79,0,1,1,36.16-179.13A458.88,458.88,0,0,1,901.57,656.65Z"/></g></g></svg>